<svg xmlns="http://www.w3.org/2000/svg" viewBox="0 0 980 250" role="img" aria-labelledby="title desc"><title id="title">Manjeet Digital Hub</title><desc id="desc">Light horizontal Manjeet Digital Hub logo with blue M, orange orbit and digital pixels</desc><defs><linearGradient id="m" x1="0" y1="0" x2="1" y2="1"><stop stop-color="#20c9ee"/><stop offset=".48" stop-color="#1686f3"/><stop offset="1" stop-color="#1737c9"/></linearGradient><linearGradient id="orbit" x1="0" y1="1" x2="1" y2="0"><stop stop-color="#1737d0"/><stop offset=".45" stop-color="#168ff5"/><stop offset=".7" stop-color="#ff9d16"/><stop offset="1" stop-color="#ff7200"/></linearGradient><linearGradient id="digital" x1="0" y1="0" x2="1" y2="0"><stop stop-color="#168ff5"/><stop offset="1" stop-color="#1737d0"/></linearGradient><linearGradient id="hub" x1="0" y1="0" x2="1" y2="0"><stop stop-color="#ffb000"/><stop offset="1" stop-color="#ff6b00"/></linearGradient></defs><g transform="translate(24 25)"><path d="M22 169V50h31l53 62 53-62h31v119h-35V99l-49 56-49-56v70z" fill="url(#m)"/><path d="M3 159c35 27 91 18 140-17 39-28 66-65 61-88-3-13-17-17-36-11 25-16 47-17 56-5 16 22-18 74-75 115-59 42-123 56-146 31-7-8-7-17 0-25z" fill="url(#orbit)"/><rect x="192" y="17" width="14" height="14" rx="2" fill="#19c3ef"/><rect x="212" y="4" width="21" height="21" rx="3" fill="#168ff5"/><rect x="218" y="32" width="17" height="17" rx="3" fill="#ff8a00"/><rect x="241" y="19" width="12" height="12" rx="2" fill="#ffb000"/></g><g font-family="Arial,Helvetica,sans-serif"><text x="292" y="116" font-size="65" font-weight="800" fill="#10275f">Manjeet</text><text x="553" y="116" font-size="65" font-weight="800" fill="url(#digital)">Digital</text><text x="765" y="116" font-size="65" font-weight="800" fill="url(#hub)">Hub</text><text x="298" y="163" font-size="18" font-weight="600" letter-spacing="5" fill="#40516f">SIMPLE TOOLS  |  SMART SOLUTIONS  |  BETTER LIFE</text></g></svg>